<?xml version="1.0" encoding="UTF-8"?><svg id="Layer_1" xmlns="http://www.w3.org/2000/svg" viewBox="0 0 1199.07 384.1"><path d="m31.09,372.57h28.33v11.54H18.05v-64.63h40.52v11.54h-27.48v15.38h24.11v11.73h-24.11v14.45Z"/><path d="m144.58,319.47h13.04v64.63h-11.72l-23.45-40.52v40.52h-13.04v-64.63h12.1l23.07,40.05v-40.05Z"/><path d="m253.58,319.47v11.54h-17.82v53.09h-13.04v-53.09h-17.82v-11.54h48.68Z"/><path d="m313.89,372.57h28.33v11.54h-41.36v-64.63h40.52v11.54h-27.48v15.38h24.11v11.73h-24.11v14.45Z"/><path d="m425.04,384.1l-15.38-23.17h-4.41v23.17h-13.04v-64.63h25.79c14.82,0,21.2,10.51,21.2,21.11,0,9.19-6.47,18.2-15.57,19.79l16.7,23.73h-15.29Zm-19.79-53.09v19.42h10.41c7.32,0,10.41-4.41,10.41-9.57s-3.28-9.85-9.38-9.85h-11.44Z"/><path d="m530.76,319.47v11.54h-17.82v53.09h-13.04v-53.09h-17.82v-11.54h48.68Z"/><path d="m612.83,384.1l-5.25-15.48h-24.2l-5.16,15.48h-13.88l24.11-64.63h14.07l24.01,64.63h-13.69Zm-25.61-26.83h16.51l-8.25-24.48-8.25,24.48Z"/><path d="m671.46,384.1v-64.63h13.04v64.63h-13.04Z"/><path d="m772.95,319.47h13.04v64.63h-11.72l-23.45-40.52v40.52h-13.04v-64.63h12.1l23.07,40.05v-40.05Z"/><path d="m913.74,384.1h-13.32l-4.69-40.05-15.76,32.74h-10.22l-15.95-32.74-4.69,40.05h-13.32l7.97-64.63h11.07l19.98,42.4,19.79-42.4h11.26l7.88,64.63Z"/><path d="m976.58,372.57h28.33v11.54h-41.36v-64.63h40.52v11.54h-27.48v15.38h24.11v11.73h-24.11v14.45Z"/><path d="m1090.08,319.47h13.04v64.63h-11.72l-23.45-40.52v40.52h-13.04v-64.63h12.1l23.07,40.05v-40.05Z"/><path d="m1199.07,319.47v11.54h-17.82v53.09h-13.04v-53.09h-17.82v-11.54h48.68Z"/><path d="m110.31,156.85h65.44c0,22.94-28.67,37.44-54.65,37.44-39.81,0-67.81-34.75-67.81-72.87s28.67-71.18,66.12-71.18c19.9,0,37.44,8.77,49.93,23.28l39.13-32.72C188.24,16.51,156.19,1,119.42,1,52.29,1,0,55.31,0,121.43s50.94,120.09,122.45,120.09c62.07,0,110.99-39.47,110.99-127.51h-123.13v42.84Z"/><polygon points="327.84 7.07 274.88 7.07 274.88 239.5 413.19 239.5 413.19 193.28 327.84 193.28 327.84 7.07"/><polygon points="506.26 146.73 590.59 146.73 590.59 99.16 506.26 99.16 506.26 51.26 602.4 51.26 602.4 5.04 453.29 5.04 453.29 237.47 605.43 237.47 605.43 191.26 506.26 191.26 506.26 146.73"/><polygon points="1194.69 1 1096.52 41.14 1096.52 87.02 1149.48 67.11 1149.48 236.81 1199.07 236.81 1199.07 1 1194.69 1"/><path d="m1010.1,168.94L817.62,21.07l-.06-.05c-17.35-12.84-37.35-20.07-57.82-20.92-1.47-.06-3-.1-4.55-.1-31,0-60.66,12.51-81.38,34.31-16.34,17.19-25.6,39.27-26.08,62.16l-.04,141h50.79V107.51c0-31.28,25.45-56.72,56.72-56.72.8,0,1.62.02,2.41.05,10.25.43,20.45,4.17,29.49,10.82l224.82,173.94,2.81,2.17,44.84.16V3.26h-50.82l1.36,165.67Z"/></svg>